# Blender 3.6.0
# www.blender.org
o Plane
v -1.212300 0.017596 0.006894
v 0.787700 0.017596 0.006894
v -1.212300 1.431809 -1.407320
v 0.787700 1.431809 -1.407320
v 1.271017 0.017596 -0.024848
v -0.728983 0.017596 -0.024848
v 1.271017 1.431809 1.389365
v -0.728983 1.431809 1.389366
v 0.199843 0.017596 -1.116273
v 0.199844 0.017596 0.883727
v 1.614056 1.431810 -1.116273
v 1.614057 1.431810 0.883727
v -0.249694 0.017596 1.179853
v -0.249695 0.017596 -0.820147
v -1.663907 1.431810 1.179854
v -1.663909 1.431809 -0.820146
v -1.212300 0.017954 0.004978
v 0.787700 0.017954 0.004978
v -1.212300 2.017954 0.004978
v 0.787700 2.017954 0.004978
vn -0.0000 0.7071 0.7071
vn -0.0000 0.7071 -0.7071
vn -0.7071 0.7071 -0.0000
vn 0.7071 0.7071 -0.0000
vn -0.0000 -0.0000 1.0000
vt 1.000000 0.000000
vt 0.000000 1.000000
vt 0.000000 0.000000
vt 1.000000 1.000000
s 0
f 2/1/1 3/2/1 1/3/1
f 6/1/2 7/2/2 5/3/2
f 10/1/3 11/2/3 9/3/3
f 13/3/4 16/4/4 15/2/4
f 18/1/5 19/2/5 17/3/5
f 2/1/1 4/4/1 3/2/1
f 6/1/2 8/4/2 7/2/2
f 10/1/3 12/4/3 11/2/3
f 13/3/4 14/1/4 16/4/4
f 18/1/5 20/4/5 19/2/5
